# xmcd
#
# Track frame offsets: 
#        150
#        12777
#        30020
#        41966
#        58137
#        74009
#        88896
#        98504
#        113646
#        123008
#        135291
#        146302
#        156623
#        168082
#        181650
#        191586
#        204921
#        216230
#        235025
#        248405
#
# Disc length: 3445 seconds
#
# Revision: 2
# Processed by: cddbd v1.5.2PL0 Copyright (c) Steve Scherf et al.
# Submitted via: ExactAudioCopy v0.99pb5
#
DISCID=000d7314
DTITLE=Various Artist - WDR 4 - Country Music
DYEAR=2008
DGENRE=Country
TTITLE0=Johnny Cash - Ring of fire (Live)
TTITLE1=Ray Price - She's got to be a saint 
TTITLE2=George Kent - Hittin' the bottle, missing you
TTITLE3=Anne Murray and Kenny Rogers - If I ever fall in love again
TTITLE4=Dan Seals - Good times
TTITLE5=Waylon Jennings - Luckenbach, Texas (back to the basics of lov
TTITLE5=e)
TTITLE6=Linda Ronstadt - When will I be loved
TTITLE7=Bobby Bare - For the good times (lay your head upon my pillow)
TTITLE8=Buddy Meredith - Coming back in style
TTITLE9=Tanya Tucker - Strong enough to bend
TTITLE10=Freddy Quinn - Some broken hearts never mend
TTITLE11=Ronnie Rogers - Rosie's leavin
TTITLE12=Buddy Meredith - A new girl in town
TTITLE13=Kenny Rogers and Dottie West - What are we doin' in love
TTITLE14=Rick Johnson - Please, don't love me
TTITLE15=George Kent - Mama bake a pie, Daddy kill a chicken
TTITLE16=David Price - The lonesome truck drivers waltz
TTITLE17=Tom Stewart - Silver lining
TTITLE18=Linda Manning - If only for a moment
TTITLE19=Bobby Joe Bratcher - Oh my darling Clementine
EXTD=
EXTT0=
EXTT1=
EXTT2=
EXTT3=
EXTT4=
EXTT5=
EXTT6=
EXTT7=
EXTT8=
EXTT9=
EXTT10=
EXTT11=
EXTT12=
EXTT13=
EXTT14=
EXTT15=
EXTT16=
EXTT17=
EXTT18=
EXTT19=
PLAYORDER=
